<svg height="487pt" viewBox="-78 0 487 487.99849" width="487pt" xmlns="http://www.w3.org/2000/svg"><path d="m126.5 386.859375v-238.707031c0-9.539063-6.859375-17.273438-15.324219-17.273438h-73.351562c-8.464844 0-15.324219 7.734375-15.324219 17.273438v238.707031zm0 0" fill="#e0ebfc"/><path d="m42.5 386v-228.769531c0-5.097657 3.582031-9.230469 8-9.230469h48c4.417969 0 8 4.132812 8 9.230469v228.769531zm0 0" fill="#a4c9ff"/><path d="m121.421875 484h-93.847656c-4.835938 0-8.757813-3.921875-8.757813-8.757812v-10.605469c0-4.835938 3.921875-8.753907 8.757813-8.753907h93.847656c4.835937 0 8.757813 3.917969 8.757813 8.753907v10.605469c0 4.835937-3.917969 8.757812-8.757813 8.757812zm0 0" fill="#4671c6"/><path d="m50.636719 408h47.726562v48h-47.726562zm0 0" fill="#f9cfcf"/><path d="m138.660156 408.28125h-128.324218c-3.222657 0-5.835938-2.613281-5.835938-5.835938v-9.746093c0-3.226563 2.613281-5.839844 5.835938-5.839844h128.324218c3.226563 0 5.839844 2.613281 5.839844 5.839844v9.746093c0 3.222657-2.613281 5.835938-5.839844 5.835938zm0 0" fill="#6bdddd"/><g fill="#f9a7a7"><path d="m60.628906 227.5h-32.601562c-2.5 0-4.527344-2.238281-4.527344-5s2.023438-5 4.527344-5h32.601562c2.5 0 4.527344 2.238281 4.527344 5s-2.027344 5-4.527344 5zm0 0"/><path d="m71.722656 271.5h-43.46875c-2.5 0-4.527344-2.238281-4.527344-5s2.023438-5 4.527344-5h43.46875c2.5 0 4.527344 2.238281 4.527344 5s-2.027344 5-4.527344 5zm0 0"/><path d="m60.628906 315.5h-32.601562c-2.5 0-4.527344-2.238281-4.527344-5s2.023438-5 4.527344-5h32.601562c2.5 0 4.527344 2.238281 4.527344 5s-2.027344 5-4.527344 5zm0 0"/><path d="m60.628906 359.5h-32.601562c-2.5 0-4.527344-2.238281-4.527344-5s2.023438-5 4.527344-5h32.601562c2.5 0 4.527344 2.238281 4.527344 5s-2.027344 5-4.527344 5zm0 0"/><path d="m60.628906 183.5h-32.601562c-2.5 0-4.527344-2.238281-4.527344-5s2.023438-5 4.527344-5h32.601562c2.5 0 4.527344 2.238281 4.527344 5s-2.027344 5-4.527344 5zm0 0"/></g><path d="m104.5 130.878906v-14.101562c0-7.058594-5.078125-12.777344-11.339844-12.777344h-37.324218c-6.261719 0-11.335938 5.71875-11.335938 12.777344v14.101562zm0 0" fill="#6bdddd"/><path d="m121.421875 488h-93.847656c-7.03125 0-12.753907-5.722656-12.753907-12.757812v-10.605469c0-7.035157 5.722657-12.757813 12.753907-12.757813h93.851562c7.035157 0 12.753907 5.722656 12.753907 12.757813v10.605469c0 7.035156-5.722657 12.757812-12.757813 12.757812zm-93.847656-28.121094c-2.621094 0-4.753907 2.136719-4.753907 4.757813v10.605469c0 2.621093 2.132813 4.757812 4.753907 4.757812h93.851562c2.625 0 4.753907-2.136719 4.753907-4.757812v-10.605469c0-2.621094-2.132813-4.757813-4.753907-4.757813zm0 0" fill="#3762cc"/><path d="m98.363281 460h-47.726562c-2.210938 0-4-1.792969-4-4v-48c0-2.210938 1.789062-4 4-4h47.722656c2.210937 0 4 1.789062 4 4v48c.003906 2.207031-1.789063 4-3.996094 4zm-43.726562-8h39.722656v-40h-39.722656zm0 0" fill="#3762cc"/><path d="m138.660156 412.285156h-128.324218c-5.421876 0-9.835938-4.414062-9.835938-9.839844v-9.746093c0-5.425781 4.414062-9.839844 9.835938-9.839844h128.324218c5.425782 0 9.839844 4.414063 9.839844 9.839844v9.746093c0 5.425782-4.414062 9.839844-9.839844 9.839844zm-128.324218-21.425781c-1.011719 0-1.835938.824219-1.835938 1.839844v9.746093c0 1.015626.824219 1.839844 1.835938 1.839844h128.324218c1.015625 0 1.839844-.824218 1.839844-1.839844v-9.746093c0-1.015625-.824219-1.839844-1.839844-1.839844zm0 0" fill="#3762cc"/><path d="m104.5 134.878906h-60c-2.207031 0-4-1.789062-4-4v-14.101562c0-9.25 6.878906-16.777344 15.335938-16.777344h37.324218c8.460938 0 15.339844 7.527344 15.339844 16.777344v14.105468c0 2.207032-1.792969 3.996094-4 3.996094zm-56-8h52v-10.101562c0-4.839844-3.292969-8.777344-7.339844-8.777344h-37.324218c-4.046876 0-7.335938 3.9375-7.335938 8.777344zm0 0" fill="#3762cc"/><path d="m126.5 390.859375h-104c-2.207031 0-4-1.789063-4-4v-238.707031c0-11.726563 8.667969-21.273438 19.324219-21.273438h73.351562c10.65625 0 19.324219 9.542969 19.324219 21.273438v238.707031c0 2.210937-1.792969 4-4 4zm-100-8h96v-234.707031c0-7.316406-5.082031-13.273438-11.324219-13.273438h-73.351562c-6.246094 0-11.324219 5.957032-11.324219 13.273438zm0 0" fill="#3762cc"/><path d="m82.453125 104v-100l-15.90625 8.121094v91.878906zm0 0" fill="#e0ebfc"/><path d="m82.453125 108h-15.910156c-2.207031 0-4-1.792969-4-4v-91.878906c0-1.503906.84375-2.875 2.179687-3.5625l15.910156-8.121094c1.242188-.632812 2.71875-.574219 3.910157.148438 1.1875.730468 1.910156 2.019531 1.910156 3.414062v100c0 2.207031-1.789063 4-4 4zm-11.910156-8h7.910156v-89.46875l-7.910156 4.042969zm0 0" fill="#3762cc"/><path d="m193.570312 192.730469-15.460937 31.34375c-1.441406 2.921875-2.199219 6.222656-2.199219 9.582031v136.34375c0 8.835938 6.980469 16 15.589844 16h120.820312c8.609376 0 15.589844-7.164062 15.589844-16v-136.339844c0-3.363281-.757812-6.664062-2.199218-9.585937l-15.460938-31.339844h-116.679688zm0 0" fill="#a4c9ff"/><path d="m318.855469 192.730469h-133.886719c-5.003906 0-9.058594-4.054688-9.058594-9.054688v-24.621093c0-5.003907 4.054688-9.054688 9.058594-9.054688h133.886719c5 0 9.054687 4.050781 9.054687 9.054688v24.621093c0 5-4.054687 9.054688-9.054687 9.054688zm0 0" fill="#4671c6"/><path d="m175.910156 262.332031h152v85.464844h-152zm0 0" fill="#e0ebfc"/><path d="m312.324219 390h-120.824219c-10.796875 0-19.585938-8.972656-19.585938-20v-136.339844c0-3.964844.902344-7.890625 2.609376-11.359375l15.460937-31.339843c.675781-1.367188 2.066406-2.230469 3.589844-2.230469h116.675781c1.523438 0 2.914062.867187 3.589844 2.230469l15.460937 31.339843c1.707031 3.464844 2.613281 7.390625 2.613281 11.359375v136.339844c0 11.027344-8.789062 20-19.589843 20zm-116.265625-193.269531-14.359375 29.113281c-1.171875 2.371094-1.789063 5.074219-1.789063 7.816406v136.339844c0 6.617188 5.199219 12 11.589844 12h120.820312c6.390626 0 11.589844-5.382812 11.589844-12v-136.339844c0-2.746094-.617187-5.449218-1.785156-7.816406l-14.363281-29.113281zm0 0" fill="#3762cc"/><path d="m318.855469 196.730469h-133.886719c-7.203125 0-13.054688-5.859375-13.054688-13.054688v-24.621093c0-7.199219 5.855469-13.054688 13.054688-13.054688h133.886719c7.199219 0 13.054687 5.855469 13.054687 13.054688v24.621093c.003906 7.199219-5.855468 13.054688-13.054687 13.054688zm-133.886719-42.730469c-2.789062 0-5.054688 2.265625-5.054688 5.054688v24.621093c0 2.789063 2.265626 5.054688 5.054688 5.054688h133.886719c2.789062 0 5.054687-2.269531 5.054687-5.054688v-24.621093c0-2.789063-2.265625-5.054688-5.054687-5.054688zm0 0" fill="#3762cc"/></svg>